<?xml version="1.0" standalone="no"?>
<!DOCTYPE svg PUBLIC "-//W3C//DTD SVG 20010904//EN"
 "http://www.w3.org/TR/2001/REC-SVG-20010904/DTD/svg10.dtd">
<svg version="1.0" xmlns="http://www.w3.org/2000/svg"
 width="512.000000pt" height="512.000000pt" viewBox="0 0 512.000000 512.000000"
 preserveAspectRatio="xMidYMid meet">
<metadata>
Created by potrace 1.14, written by Peter Selinger 2001-2017
</metadata>
<g transform="translate(0.000000,512.000000) scale(0.100000,-0.100000)"
fill="#000000" stroke="none">
<path d="M535 5109 c-263 -59 -458 -251 -519 -509 -17 -74 -15 -264 3 -299 7
-11 10 -21 7 -21 -5 0 35 -101 56 -140 78 -150 240 -275 415 -321 78 -21 86
-21 2023 -23 1070 0 1977 2 2015 7 221 24 425 169 518 368 48 103 66 187 62
301 -3 113 -3 114 -36 208 -57 166 -176 297 -340 375 -143 67 -3 63 -2184 63
-1140 0 -1997 -4 -2020 -9z"/>
<path d="M253 3679 c-101 -21 -161 -104 -151 -211 6 -58 44 -111 104 -145 l39
-22 2320 2 c2300 2 2320 2 2354 22 19 11 48 37 65 58 28 35 31 46 31 106 0 57
-4 74 -28 109 -15 23 -46 51 -70 64 l-42 22 -2297 1 c-1263 0 -2309 -3 -2325
-6z"/>
<path d="M639 3219 c-102 -6 -202 -30 -274 -66 -158 -80 -290 -242 -342 -418
-24 -83 -24 -267 1 -349 38 -128 88 -210 182 -301 103 -99 229 -162 364 -180
66 -9 3930 -9 3980 0 130 23 212 58 308 130 73 55 121 109 168 189 113 191
122 434 23 629 -102 203 -304 344 -517 363 -89 8 -3757 11 -3893 3z"/>
<path d="M234 1793 c-152 -53 -182 -249 -52 -339 l41 -29 2323 -2 c2542 -3
2354 -8 2420 57 90 88 63 245 -52 300 l-46 23 -2300 1 c-1777 1 -2307 -2
-2334 -11z"/>
<path d="M547 1313 c-243 -46 -437 -215 -514 -447 -23 -70 -27 -98 -27 -201 0
-87 5 -137 18 -180 74 -246 271 -427 516 -473 19 -4 935 -7 2035 -7 1911 0
2003 1 2060 18 225 69 391 235 460 458 26 86 29 241 5 335 -33 128 -83 217
-175 309 -108 108 -223 167 -370 191 -22 4 -919 7 -1993 8 -1456 1 -1969 -2
-2015 -11z"/>
</g>
</svg>
